<svg xmlns="http://www.w3.org/2000/svg" viewBox="0 0 215.29 153.78"><defs><style>.cls-1{fill:#06f;}</style></defs><g id="Layer_2" data-name="Layer 2"><g id="Layer_1-2" data-name="Layer 1"><path class="cls-1" d="M48.8,153.78q-22.14,0-35.47-11.69T0,110.1H21.73q0,11.28,7.39,17.74T48.8,134.3q12.09,0,19.07-6.56t7-17.43A23.65,23.65,0,0,0,70.33,96a22.75,22.75,0,0,0-12.92-8.41L35.88,81.81Q20.7,77.72,12,66.84t-8.71-26q0-12.3,5.43-21.42A37.24,37.24,0,0,1,24.19,5.13Q34.24,0,47.57,0T71,5.13A38.45,38.45,0,0,1,86.83,19.38,39.51,39.51,0,0,1,92.47,40.6H70.74q0-9.64-6.46-15.48T47.57,19.27q-10.26,0-16.51,5.85T24.81,40.39A19.37,19.37,0,0,0,29,53.1,22.15,22.15,0,0,0,40.8,60.28l22.15,6q15.57,4.09,24.6,16t9,28.09q0,13.34-5.94,23.07A39.94,39.94,0,0,1,74,148.44Q63.36,153.78,48.8,153.78Z"/><path class="cls-1" d="M127.12,151.73V2.05h22.14V64.38h43.88V2.05h22.15V151.73H193.14V84.27H149.26v67.46Z"/></g></g></svg>